<?xml version="1.0" standalone="no"?>
<!DOCTYPE svg PUBLIC "-//W3C//DTD SVG 20010904//EN"
 "http://www.w3.org/TR/2001/REC-SVG-20010904/DTD/svg10.dtd">
<svg version="1.0" xmlns="http://www.w3.org/2000/svg"
 width="1924.000000pt" height="343.000000pt" viewBox="0 0 1924.000000 343.000000"
 preserveAspectRatio="xMidYMid meet">

<g transform="translate(0.000000,343.000000) scale(0.100000,-0.100000)"
fill="#000000" stroke="none">
<path d="M5625 3275 c-36 -29 -24 -34 12 -5 47 37 144 16 194 -41 9 -11 20
-19 24 -19 5 0 -2 12 -16 26 -61 65 -160 84 -214 39z"/>
<path d="M5591 3225 c-1 -15 10 -23 47 -35 l47 -15 5 -135 6 -135 2 133 2 132
-32 20 c-18 11 -41 20 -50 20 -9 0 -19 8 -21 18 -4 14 -5 14 -6 -3z"/>
<path d="M674 3216 c-33 -15 -77 -63 -71 -79 1 -5 23 -17 47 -26 27 -10 50
-26 57 -41 12 -24 13 -24 13 -3 0 24 -29 47 -72 57 -36 8 -36 35 -2 61 37 28
76 34 120 19 45 -15 60 -10 18 6 -49 19 -78 21 -110 6z"/>
<path d="M5865 3169 c4 -23 1 -49 -9 -74 -9 -21 -19 -62 -22 -91 -8 -64 3 -69
56 -25 19 15 45 31 57 35 31 10 91 -21 114 -58 10 -17 19 -27 19 -23 0 22 -36
66 -67 81 -47 22 -61 20 -113 -14 -25 -16 -49 -30 -53 -30 -11 0 1 73 19 116
16 39 18 83 3 104 -7 11 -8 5 -4 -21z"/>
<path d="M7190 3175 c-58 -43 -89 -105 -52 -105 11 0 13 3 5 8 -18 12 11 63
52 91 27 18 44 22 74 18 51 -6 128 -45 152 -76 10 -13 19 -19 19 -14 0 19 -59
64 -109 83 -68 26 -100 25 -141 -5z"/>
<path d="M820 3183 c0 -5 13 -16 29 -26 32 -19 61 -72 61 -112 0 -14 -10 -47
-22 -73 -19 -40 -22 -65 -22 -171 -1 -102 2 -125 14 -129 12 -4 13 -2 3 9 -28
28 -11 242 23 307 23 44 17 94 -16 140 -28 39 -70 72 -70 55z"/>
<path d="M4282 3147 c-42 -43 -41 -63 2 -71 57 -11 65 -28 69 -156 l3 -115 2
116 c2 104 0 117 -19 138 -11 12 -34 24 -50 28 -37 7 -37 25 2 57 42 36 92 35
151 -3 58 -37 82 -80 73 -130 -3 -20 -8 -58 -10 -86 -2 -27 -2 -39 1 -25 2 14
9 48 15 76 7 29 9 63 5 77 -15 63 -103 127 -174 127 -30 0 -45 -7 -70 -33z"/>
<path d="M3585 3150 c-3 -5 4 -29 16 -52 12 -24 26 -56 30 -73 6 -25 7 -26 8
-7 1 13 -8 42 -19 64 -20 42 -25 68 -13 68 19 0 92 -53 118 -86 52 -67 95
-170 95 -228 0 -33 -21 -99 -45 -147 -8 -15 -15 -34 -15 -41 0 -7 15 19 33 57
44 97 44 173 0 267 -36 76 -103 155 -150 174 -38 17 -50 17 -58 4z"/>
<path d="M12896 3115 c-16 -8 -35 -23 -43 -33 -23 -29 -34 -52 -26 -52 5 0 13
10 18 22 27 59 118 82 172 42 34 -25 70 -94 79 -150 13 -89 -51 -212 -120
-230 -66 -16 -135 40 -162 133 -14 48 -15 67 -6 112 15 70 8 78 -8 11 -31
-131 59 -280 162 -267 52 7 84 34 115 97 51 101 33 220 -45 293 -37 35 -95 45
-136 22z"/>
<path d="M2571 3054 c-47 -24 -79 -44 -72 -44 8 0 51 19 97 42 l83 41 43 -19
c84 -38 137 -120 123 -191 -5 -26 -5 -27 5 -5 16 38 1 97 -36 141 -35 41 -106
82 -140 80 -10 0 -57 -21 -103 -45z"/>
<path d="M7430 3040 c-14 -43 -8 -236 8 -252 20 -20 162 61 162 93 0 4 15 13
33 18 31 9 31 9 5 10 -20 1 -34 -9 -55 -36 -28 -37 -121 -89 -135 -75 -16 16
-22 191 -8 232 7 22 11 42 8 45 -3 3 -11 -13 -18 -35z"/>
<path d="M7170 3063 c46 -17 60 -56 91 -256 10 -67 10 -80 -2 -88 -11 -7 -11
-9 4 -9 20 0 23 36 8 103 -5 23 -15 76 -21 117 -16 100 -39 140 -80 139 -13
-1 -13 -1 0 -6z"/>
<path d="M2076 3041 c-11 -18 35 -139 70 -186 37 -48 116 -95 161 -95 12 0 24
-4 28 -9 3 -5 -31 -58 -75 -116 -119 -160 -108 -165 71 -34 68 50 147 104 174
120 28 16 44 29 37 29 -15 0 -161 -96 -261 -172 -65 -48 -81 -56 -81 -38 0 6
4 10 8 10 4 0 15 13 25 29 9 16 30 43 46 60 17 18 33 41 36 52 4 10 10 19 14
19 4 0 13 11 19 25 11 23 9 25 -26 31 -105 19 -186 91 -219 196 -11 35 -19 65
-17 67 1 1 21 -12 44 -30 42 -34 44 -34 139 -33 60 1 118 8 154 18 73 22 70
30 -3 11 -72 -19 -179 -29 -223 -21 -21 4 -50 21 -70 41 -37 37 -43 40 -51 26z"/>
<path d="M11325 2948 c-32 -57 -92 -155 -134 -218 -42 -63 -80 -121 -84 -127
-4 -7 -4 -13 0 -13 13 1 252 378 253 399 0 3 8 15 16 26 15 19 15 17 9 -25 -9
-53 -102 -341 -116 -354 -5 -6 -9 -17 -9 -25 1 -43 72 144 119 313 29 102 31
126 12 126 -5 0 -34 -46 -66 -102z"/>
<path d="M12900 3024 l-25 -25 36 20 c28 17 42 19 61 12 28 -10 54 -46 61 -82
l4 -24 2 25 c1 35 -46 89 -84 95 -23 4 -36 -1 -55 -21z"/>
<path d="M723 2865 c0 -82 3 -224 7 -315 l6 -165 1 130 c0 72 -3 213 -6 315
l-7 185 -1 -150z"/>
<path d="M12867 2983 c-4 -3 -7 -18 -6 -32 1 -26 1 -25 10 3 9 31 7 41 -4 29z"/>
<path d="M14149 2948 c-16 -18 -29 -36 -29 -39 0 -4 -8 -10 -17 -12 -15 -4
-15 -5 -2 -6 9 0 30 17 48 39 36 45 52 48 100 19 18 -11 35 -18 38 -15 7 6
-72 46 -92 46 -9 0 -29 -15 -46 -32z"/>
<path d="M3632 2944 c-1 -17 -18 -111 -37 -209 -20 -98 -34 -183 -32 -189 2
-6 11 30 20 79 10 50 21 108 26 130 28 121 32 153 29 185 -5 34 -5 35 -6 4z"/>
<path d="M14300 2926 c0 -4 22 -28 48 -54 27 -26 57 -60 67 -75 10 -15 20 -25
23 -23 5 5 -41 70 -63 91 -6 6 -25 23 -43 39 -18 17 -32 26 -32 22z"/>
<path d="M13037 2913 c-4 -3 -7 -15 -7 -25 0 -30 -29 -78 -53 -88 -14 -6 -16
-9 -6 -9 22 -1 58 35 64 67 15 68 15 68 2 55z"/>
<path d="M6071 2893 c-1 -30 -47 -65 -157 -120 l-94 -46 0 -144 0 -144 23 6
c42 12 92 37 153 76 82 53 117 62 161 44 42 -18 57 -32 71 -70 10 -27 10 -28
11 -6 1 31 -57 86 -99 94 -33 7 -82 -9 -128 -42 -41 -29 -147 -81 -166 -81
-14 0 -16 17 -16 130 l0 130 73 36 c138 68 188 110 174 146 -3 7 -6 4 -6 -9z"/>
<path d="M7730 2899 c54 -10 90 -49 90 -95 0 -37 -12 -49 -77 -75 -42 -17 -43
-19 -13 -13 72 13 100 38 100 89 0 61 -48 106 -112 104 -30 -1 -29 -2 12 -10z"/>
<path d="M5682 2885 c-11 -12 -10 -15 3 -15 8 0 15 7 15 15 0 18 -2 18 -18 0z"/>
<path d="M12860 2878 c0 -31 44 -88 68 -88 11 1 8 6 -10 16 -16 8 -28 16 -28
17 0 1 -7 20 -15 42 -12 35 -14 36 -15 13z"/>
<path d="M5340 2875 c0 -27 38 -116 65 -151 41 -54 75 -67 164 -61 42 3 89 9
104 12 l28 8 -3 -147 c-2 -80 0 -146 4 -146 10 0 13 53 10 184 l-3 118 -32 -6
c-54 -12 -165 -19 -190 -12 -46 11 -95 71 -121 150 -9 27 -15 50 -13 52 2 2
14 -5 27 -16 32 -28 94 -43 144 -35 60 10 120 27 131 38 7 7 3 7 -10 3 -58
-21 -153 -37 -185 -31 -19 4 -49 18 -67 31 -36 28 -53 30 -53 9z"/>
<path d="M13605 2846 c-4 -26 -2 -59 5 -80 12 -39 90 -149 124 -178 33 -27 74
-22 115 15 20 17 47 40 61 49 14 9 20 17 14 17 -5 1 -34 -19 -63 -44 -29 -25
-63 -45 -75 -45 -36 0 -116 83 -156 164 -15 30 -21 119 -8 131 4 4 26 -9 49
-29 27 -22 52 -36 68 -35 26 1 26 1 -3 9 -16 5 -46 23 -67 40 -21 16 -42 30
-48 30 -5 0 -13 -20 -16 -44z"/>
<path d="M13945 2855 c-66 -19 -133 -35 -150 -36 -27 -2 -27 -2 -5 -6 14 -2
70 8 125 23 55 14 112 28 128 31 15 3 30 9 33 14 7 12 5 12 -131 -26z"/>
<path d="M4492 2808 c-2 -71 9 -85 40 -55 26 25 90 57 114 57 58 0 114 -57
114 -116 0 -61 -55 -106 -202 -164 -32 -12 -58 -26 -58 -31 0 -5 8 -5 18 0 9
6 60 30 113 54 111 51 139 80 139 142 0 48 -25 87 -70 110 -45 23 -87 18 -135
-15 -24 -16 -48 -30 -54 -30 -5 0 -12 26 -14 58 l-3 57 -2 -67z"/>
<path d="M2820 2839 c0 -5 5 -7 10 -4 6 3 10 8 10 11 0 2 -4 4 -10 4 -5 0 -10
-5 -10 -11z"/>
<path d="M2770 2821 c-14 -5 -47 -14 -75 -20 -58 -14 -137 -42 -132 -47 2 -2
29 5 61 16 31 10 82 24 113 30 31 5 62 15 67 20 12 12 2 12 -34 1z"/>
<path d="M1096 2761 c-65 -59 -85 -70 -151 -88 l-50 -13 47 5 c61 6 85 19 166
91 26 23 56 44 67 47 18 4 18 5 -2 6 -14 1 -43 -18 -77 -48z"/>
<path d="M1210 2801 c8 -6 23 -11 32 -11 26 0 75 -56 82 -95 12 -60 -13 -96
-97 -137 -163 -82 -272 -78 -328 12 -13 22 -27 40 -31 40 -10 0 -8 -136 2
-215 6 -41 6 -22 3 59 -5 99 -3 117 8 110 8 -4 20 -16 27 -26 50 -69 190 -62
336 15 64 34 96 74 96 122 0 36 -30 88 -62 109 -28 18 -92 34 -68 17z"/>
<path d="M10183 2803 c-47 -6 -42 -25 22 -88 58 -59 88 -110 135 -232 44 -114
86 -151 153 -132 36 10 75 44 63 56 -4 5 -12 0 -18 -11 -5 -10 -25 -24 -44
-32 -30 -13 -38 -12 -63 0 -32 17 -62 62 -81 122 -27 86 -85 187 -137 239 -29
29 -53 56 -53 59 0 3 12 6 28 7 15 0 36 4 47 9 l20 9 -20 -1 c-11 -1 -35 -3
-52 -5z"/>
<path d="M10295 2790 c22 -4 54 -10 70 -14 27 -6 27 -5 -5 8 -19 8 -51 14 -70
14 l-35 -1 40 -7z"/>
<path d="M10400 2760 c0 -5 7 -10 16 -10 8 0 42 -26 74 -58 68 -68 85 -113 77
-212 -3 -49 -2 -59 5 -40 5 14 8 55 5 92 -5 75 -35 138 -88 182 -41 35 -89 60
-89 46z"/>
<path d="M4360 2721 c0 -36 -3 -40 -39 -54 -56 -23 -154 -47 -190 -47 -35 0
-100 29 -120 54 -39 47 -39 -16 0 -99 23 -48 94 -133 104 -123 3 3 -12 23 -34
45 -37 36 -91 131 -91 161 0 17 15 15 31 -4 47 -57 149 -56 302 2 46 18 47 19
47 61 0 24 -2 43 -5 43 -3 0 -5 -18 -5 -39z"/>
<path d="M14440 2721 c0 -33 -5 -42 -38 -64 -38 -25 -87 -106 -79 -130 2 -6
13 14 26 44 15 38 34 62 62 81 34 25 39 33 39 68 0 22 -2 40 -5 40 -3 0 -5
-17 -5 -39z"/>
<path d="M14055 2726 c-33 -13 -73 -29 -89 -35 -16 -6 -27 -13 -25 -16 3 -2
43 11 89 30 99 40 120 43 120 15 0 -69 -158 -447 -245 -587 -14 -24 -21 -43
-16 -43 6 0 11 5 11 11 0 6 13 29 29 52 80 117 231 490 231 569 0 35 -22 36
-105 4z"/>
<path d="M12138 2713 c6 -2 18 -2 25 0 6 3 1 5 -13 5 -14 0 -19 -2 -12 -5z"/>
<path d="M7145 2679 c-95 -34 -116 -35 -174 -9 -24 11 -47 20 -52 20 -16 0 -9
-70 10 -109 20 -37 98 -117 108 -108 2 3 -16 24 -42 48 -54 50 -75 86 -75 129
0 35 6 37 40 13 39 -27 121 -23 208 11 39 16 72 31 72 33 0 5 -12 2 -95 -28z"/>
<path d="M7605 2692 c-27 -8 -45 -16 -40 -18 6 -2 37 5 70 16 33 10 51 19 40
18 -11 0 -42 -7 -70 -16z"/>
<path d="M12080 2690 l-21 -21 36 -41 c42 -49 43 -72 10 -152 -13 -33 -22 -62
-20 -64 2 -3 9 6 14 19 5 13 16 41 25 63 26 63 18 109 -26 147 -21 19 -24 49
-4 49 8 0 18 5 21 10 11 18 -15 10 -35 -10z"/>
<path d="M12185 2700 c3 -5 11 -10 16 -10 6 0 7 5 4 10 -3 6 -11 10 -16 10 -6
0 -7 -4 -4 -10z"/>
<path d="M12220 2688 c0 -2 27 -32 61 -66 94 -97 112 -164 61 -224 -36 -41
-105 -149 -99 -154 2 -3 23 24 46 58 22 35 52 78 66 97 41 55 31 114 -31 197
-21 28 -104 101 -104 92z"/>
<path d="M12526 2673 c-13 -13 -5 -32 35 -74 42 -46 90 -121 127 -201 21 -47
82 -249 82 -274 0 -19 41 -126 46 -121 2 2 -3 24 -11 48 -9 24 -28 91 -42 149
-42 170 -124 341 -199 411 -38 36 -32 53 16 45 23 -3 49 -10 58 -15 9 -5 31
-15 47 -22 70 -31 175 -127 230 -211 42 -64 54 -75 29 -25 -38 73 -125 166
-206 218 -63 41 -197 87 -212 72z"/>
<path d="M7493 2654 c-37 -16 -40 -34 -24 -121 5 -26 15 -83 22 -125 6 -43 17
-78 23 -78 11 0 60 16 120 39 16 7 26 14 24 17 -3 3 -34 -6 -69 -20 -34 -15
-66 -26 -70 -26 -4 0 -13 33 -19 73 -7 39 -16 96 -21 126 -12 74 -11 101 4
101 18 1 74 28 57 28 -8 0 -30 -6 -47 -14z"/>
<path d="M8799 2630 c-36 -35 -36 -73 -2 -78 34 -5 44 -25 69 -144 34 -161 36
-153 -43 -190 -38 -16 -79 -34 -93 -38 -18 -6 -20 -9 -6 -9 10 -1 55 16 101
38 l82 38 -7 44 c-14 85 -41 204 -52 232 -7 19 -20 30 -39 34 -37 7 -38 32 -3
67 30 29 76 34 129 13 70 -28 70 -27 70 -129 1 -115 14 -198 30 -198 28 0 231
109 250 134 25 33 58 33 102 0 102 -77 156 -166 138 -224 -4 -11 -21 -24 -43
-30 -23 -7 -50 -27 -72 -53 l-34 -42 37 35 c21 19 57 44 80 55 35 16 43 26 45
51 4 43 -17 90 -67 146 -40 44 -124 108 -144 108 -5 0 -24 -16 -42 -35 -39
-41 -244 -141 -250 -122 -16 51 -26 140 -20 190 8 74 -7 99 -71 121 -73 25
-110 21 -145 -14z"/>
<path d="M3736 2583 c-40 -109 -78 -241 -74 -253 2 -5 24 59 50 143 46 150 57
202 24 110z"/>
<path d="M11204 2493 c-61 -123 -206 -361 -234 -383 -3 -3 -17 -21 -30 -40
-13 -19 -31 -42 -40 -50 -8 -8 -28 -32 -43 -52 -26 -36 -155 -166 -316 -320
-45 -43 -78 -78 -74 -78 3 0 38 30 77 68 39 37 100 94 136 127 144 133 276
296 407 500 71 110 178 313 170 321 -2 3 -26 -39 -53 -93z"/>
<path d="M11001 2460 c-185 -240 -403 -451 -565 -549 -71 -42 -94 -38 -142 29
-20 28 -39 50 -44 50 -10 0 -30 -80 -30 -122 0 -93 154 -301 220 -297 8 0 2 7
-15 14 -46 20 -120 105 -161 184 -34 66 -36 76 -30 129 7 58 24 90 34 63 10
-30 75 -91 96 -91 26 0 76 22 76 33 0 4 4 7 10 7 11 0 77 48 155 112 79 66
264 255 335 343 35 44 67 82 70 85 6 5 71 97 84 118 22 37 -11 -1 -93 -108z"/>
<path d="M7223 2545 c-29 -13 -67 -35 -85 -49 -18 -13 -46 -26 -63 -29 l-30
-4 31 -2 c17 0 42 7 55 18 26 20 112 65 145 75 19 6 21 0 38 -116 9 -68 19
-133 21 -145 4 -18 -5 -25 -73 -53 -133 -56 -192 -83 -187 -88 2 -3 20 3 40
12 19 9 50 22 68 30 165 70 162 69 161 92 -1 11 -10 79 -20 152 -19 149 -16
146 -101 107z"/>
<path d="M3536 2431 c-10 -56 -16 -104 -13 -107 3 -3 8 14 12 38 3 24 11 66
17 94 6 28 9 57 6 65 -2 7 -12 -33 -22 -90z"/>
<path d="M14304 2494 c-4 -10 -33 -75 -66 -142 -33 -68 -58 -126 -56 -128 3
-2 20 -6 39 -9 l34 -5 -31 11 -32 11 65 135 c36 73 63 137 60 140 -4 3 -9 -3
-13 -13z"/>
<path d="M4501 2399 c0 -46 4 -106 9 -134 5 -31 6 0 2 80 -5 148 -12 180 -11
54z"/>
<path d="M7737 2446 c-18 -18 -41 -38 -52 -44 -15 -8 -16 -11 -5 -12 9 0 34
18 55 41 l40 41 66 -5 c76 -5 150 -37 170 -74 17 -32 15 -89 -5 -108 -11 -11
-50 -18 -143 -25 -74 -6 -166 -20 -218 -34 -116 -31 -127 -36 -121 -52 3 -7 8
-30 11 -51 12 -78 44 -256 85 -476 33 -175 25 -246 -29 -266 -23 -8 -23 -10
-5 -10 11 -1 29 8 40 20 32 35 29 123 -11 339 -63 342 -78 441 -68 451 24 24
193 60 316 68 153 10 170 19 170 97 0 40 -4 51 -31 75 -37 33 -117 59 -184 59
-43 0 -53 -4 -81 -34z"/>
<path d="M4358 2464 c-3 -2 -36 -11 -74 -19 -66 -14 -67 -15 -14 -9 30 3 64 7
75 7 18 2 20 -6 26 -98 l5 -100 2 107 c2 95 -4 128 -20 112z"/>
<path d="M4140 2440 c8 -5 26 -9 40 -9 l25 1 -25 8 c-14 4 -32 8 -40 9 -13 1
-13 0 0 -9z"/>
<path d="M6231 2439 c-1 -26 -37 -65 -77 -84 -19 -9 -33 -19 -30 -22 9 -9 94
50 107 73 6 12 9 28 6 36 -4 9 -6 9 -6 -3z"/>
<path d="M5248 2434 c-9 -8 11 -72 39 -129 43 -87 100 -136 173 -149 34 -6
169 6 222 19 20 5 27 3 31 -12 4 -15 5 -14 6 5 1 25 -14 28 -69 12 -53 -16
-211 -16 -239 -1 -61 33 -151 170 -151 230 0 19 5 17 41 -18 72 -68 149 -74
327 -24 87 24 55 23 -58 -3 -58 -13 -114 -24 -125 -24 -44 0 -95 22 -138 60
-47 42 -50 44 -59 34z"/>
<path d="M18483 2406 c-185 -35 -309 -141 -363 -311 -20 -60 -17 -200 5 -265
32 -96 116 -194 218 -254 26 -15 47 -31 47 -35 0 -4 -21 -17 -47 -29 -27 -12
-68 -36 -93 -52 -25 -16 -54 -36 -64 -42 -46 -30 -110 -109 -137 -169 -30 -66
-43 -169 -29 -230 36 -152 119 -237 287 -293 216 -72 496 -49 653 53 82 53
113 88 152 171 105 222 50 465 -137 605 -64 48 -97 69 -137 88 -50 24 -54 33
-19 52 102 52 181 130 226 222 38 76 39 187 3 265 -28 60 -80 124 -113 139
-11 5 -33 17 -50 27 -93 57 -272 82 -402 58z m268 -80 c80 -51 119 -138 119
-266 0 -134 -37 -238 -114 -322 l-36 -39 -42 25 c-24 14 -62 35 -86 47 -23 13
-50 31 -59 41 -9 10 -21 18 -28 18 -20 0 -83 73 -112 130 -24 48 -28 66 -28
145 0 72 4 99 22 135 45 94 100 122 229 117 79 -2 96 -6 135 -31z m-241 -837
c0 -4 26 -21 58 -39 192 -107 275 -192 307 -317 19 -72 19 -114 0 -187 -34
-131 -118 -196 -263 -204 -75 -4 -167 10 -182 27 -8 10 -64 35 -72 33 -5 -1
-7 4 -5 10 1 7 -5 12 -13 10 -8 -2 -12 -1 -8 3 3 4 -4 22 -17 41 -56 83 -75
231 -46 354 16 68 70 169 123 233 37 43 44 47 79 45 22 -1 39 -5 39 -9z"/>
<path d="M12050 2360 c-114 -224 -244 -389 -454 -578 -42 -38 -56 -56 -49 -63
8 -8 19 -8 40 0 l28 11 -27 -4 c-38 -5 -35 13 7 45 68 51 159 142 256 255 68
79 237 359 225 371 -3 3 -14 -14 -26 -37z"/>
<path d="M17494 2390 c-12 -5 -31 -24 -42 -42 -53 -86 -242 -238 -407 -328
-102 -55 -125 -71 -125 -86 0 -26 29 -26 92 -1 114 46 193 78 225 93 17 8 45
14 62 14 l31 0 0 -613 c0 -587 -1 -615 -19 -631 -13 -12 -52 -20 -134 -28 -86
-9 -118 -16 -122 -27 -13 -33 16 -38 170 -31 83 3 251 4 375 1 295 -6 289 -6
301 6 5 5 7 16 4 25 -5 11 -34 17 -121 25 -85 7 -119 14 -132 27 -16 15 -17
77 -20 811 l-2 795 -58 -1 c-31 0 -67 -4 -78 -9z"/>
<path d="M15231 2368 c-4 -13 -18 -50 -30 -83 -13 -33 -47 -123 -77 -200 -30
-77 -64 -165 -76 -195 -11 -30 -27 -68 -34 -85 -7 -16 -24 -61 -37 -100 -25
-68 -49 -129 -67 -170 -5 -11 -21 -54 -35 -95 -30 -84 -70 -190 -90 -235 -7
-16 -17 -42 -20 -58 -4 -15 -11 -30 -16 -33 -5 -3 -9 -12 -9 -19 0 -8 -10 -38
-23 -67 -13 -29 -32 -72 -42 -95 -10 -24 -22 -43 -27 -43 -4 0 -8 -6 -8 -13 0
-21 -75 -90 -112 -103 -18 -7 -47 -13 -64 -13 -37 -1 -63 -26 -46 -43 6 -6 26
-11 44 -11 183 3 442 2 449 -3 19 -12 69 7 69 26 0 26 -5 28 -94 39 -102 12
-126 33 -126 105 0 50 12 111 30 151 5 11 18 47 30 80 11 33 25 69 30 80 5 11
19 49 31 85 11 36 25 71 31 78 12 14 158 16 354 6 l120 -7 27 -76 c79 -218
127 -365 127 -391 0 -82 -39 -107 -186 -116 -99 -7 -104 -8 -104 -29 0 -13 7
-25 15 -29 8 -3 104 -1 212 5 140 7 254 7 389 -1 105 -6 198 -8 207 -4 23 9
22 54 0 54 -39 0 -92 22 -120 49 -32 31 -59 76 -93 156 -12 28 -25 59 -30 70
-27 59 -200 484 -200 491 0 3 -11 30 -25 60 -14 30 -72 172 -130 317 -125 308
-117 289 -164 397 -39 89 -64 111 -80 68z m-60 -445 c9 -21 24 -63 34 -93 10
-30 21 -59 25 -65 4 -5 11 -21 15 -35 4 -14 29 -85 56 -158 27 -72 49 -137 49
-142 0 -6 -74 -10 -201 -10 l-201 0 7 33 c4 17 16 50 26 71 11 22 19 45 19 50
0 10 49 145 70 191 5 11 18 47 30 80 27 78 44 115 50 115 3 0 12 -17 21 -37z"/>
<path d="M747 2245 c3 -71 7 -132 9 -134 7 -7 2 130 -6 199 -5 43 -6 21 -3
-65z"/>
<path d="M12960 2334 c0 -6 7 -24 15 -41 8 -17 21 -59 29 -94 8 -35 14 -52 15
-38 1 15 -8 55 -19 90 -20 63 -40 104 -40 83z"/>
<path d="M881 2284 c0 -28 3 -75 8 -105 5 -30 15 -90 21 -134 21 -136 26 -151
63 -165 192 -76 349 -189 407 -294 46 -84 32 -208 -26 -222 -44 -11 -71 5
-135 78 -118 135 -228 238 -255 238 -12 0 -30 -68 -20 -77 2 -3 8 11 11 31 6
29 10 34 24 27 39 -22 131 -110 209 -201 90 -107 124 -126 178 -101 57 26 69
143 23 232 -46 92 -207 215 -360 276 -35 14 -69 30 -76 37 -15 14 -39 158 -67
401 -1 17 -4 7 -5 -21z"/>
<path d="M6075 2321 c-6 -4 -43 -21 -83 -36 -84 -33 -91 -44 -10 -16 67 23
139 60 118 61 -9 0 -20 -4 -25 -9z"/>
<path d="M9210 2280 c-41 -22 -92 -48 -112 -57 -21 -10 -40 -23 -42 -29 -2 -6
9 -76 25 -155 16 -79 33 -165 38 -192 4 -26 11 -50 15 -54 10 -11 7 8 -29 178
-51 242 -58 210 67 277 58 31 109 54 113 51 10 -11 -41 -153 -97 -272 -28 -59
-48 -110 -45 -113 15 -15 59 11 144 88 51 45 90 84 88 87 -3 2 -31 -20 -63
-50 -89 -83 -117 -106 -142 -114 -12 -4 -20 -3 -18 1 93 177 171 394 141 394
-5 0 -42 -18 -83 -40z"/>
<path d="M3506 2244 c-4 -37 -5 -69 -2 -71 2 -3 7 25 11 62 4 36 5 68 3 71 -3
2 -8 -25 -12 -62z"/>
<path d="M3637 2238 c-52 -250 -47 -403 14 -441 21 -13 39 4 68 63 33 68 24
72 -12 5 -18 -33 -39 -60 -47 -60 -58 0 -63 214 -9 454 5 24 8 46 5 48 -2 2
-11 -29 -19 -69z"/>
<path d="M3855 2278 c-2 -7 -27 -82 -55 -166 -61 -184 -65 -198 -44 -152 10
19 39 98 65 175 52 153 57 157 34 33 -9 -46 -20 -105 -25 -133 -5 -27 -13 -74
-19 -103 -6 -30 -11 -68 -10 -85 1 -18 9 15 19 73 10 58 26 143 35 190 25 139
29 180 16 180 -6 0 -13 -6 -16 -12z"/>
<path d="M5863 2240 c-19 -8 -23 -17 -22 -52 0 -24 4 -61 9 -83 6 -29 7 -17 3
41 l-6 80 34 11 c19 6 27 11 19 11 -8 1 -25 -3 -37 -8z"/>
<path d="M2010 2213 c-17 -37 -50 -154 -49 -173 1 -16 6 0 33 90 27 90 35 92
29 5 -3 -44 -3 -78 -1 -75 10 9 19 180 10 180 -5 0 -15 -12 -22 -27z"/>
<path d="M4387 2098 l5 -138 -100 0 c-90 0 -105 -3 -153 -28 -60 -31 -113 -93
-129 -150 -11 -42 -12 -138 -1 -165 4 -10 7 19 6 65 0 105 26 167 88 215 58
43 107 55 210 51 l87 -3 -1 75 c-1 41 -5 107 -9 145 -6 48 -7 27 -3 -67z"/>
<path d="M12187 2177 c-58 -81 -179 -202 -277 -277 -25 -19 -47 -37 -50 -40
-5 -6 -51 -34 -115 -70 -16 -9 -52 -25 -79 -35 -27 -11 -44 -21 -38 -23 19 -6
193 85 267 140 117 86 375 360 338 358 -4 -1 -25 -24 -46 -53z"/>
<path d="M4522 2174 c-2 -37 23 -228 33 -264 3 -8 19 -21 37 -29 41 -18 169
-105 202 -137 75 -76 93 -229 31 -270 -36 -23 -75 -11 -105 34 -14 20 -27 39
-30 42 -3 3 -17 21 -30 40 -27 38 -90 104 -94 98 -1 -1 -12 -26 -23 -55 -28
-67 -72 -115 -131 -140 -102 -45 -101 -44 -67 -38 17 3 54 17 83 32 57 27 116
95 127 145 4 15 10 30 15 33 8 5 72 -68 134 -153 39 -53 68 -69 110 -58 62 15
80 130 36 222 -32 66 -89 119 -198 183 -51 30 -92 58 -92 62 0 5 -7 57 -15
116 -8 59 -16 124 -18 143 -4 34 -4 34 -5 -6z"/>
<path d="M8600 2167 c0 -31 8 -56 28 -85 27 -42 87 -92 106 -92 6 0 2 6 -9 12
-66 38 -115 110 -115 167 0 35 7 38 36 16 10 -8 28 -15 39 -15 12 0 5 7 -20
20 -57 29 -65 27 -65 -23z"/>
<path d="M14329 2172 c88 -43 177 -127 209 -195 25 -53 38 -147 28 -198 -9
-51 -45 -89 -88 -96 -33 -5 -41 -2 -71 28 -20 20 -41 56 -51 89 -10 30 -21 64
-26 75 -4 11 -14 36 -21 55 -24 67 -91 189 -121 221 l-31 32 -18 -24 c-28 -38
-63 -103 -51 -95 7 4 24 27 38 52 15 25 31 43 38 41 24 -8 96 -130 131 -223
89 -237 105 -264 167 -264 80 0 124 72 116 188 -7 92 -45 168 -121 238 -55 51
-160 114 -189 114 -7 0 20 -17 61 -38z"/>
<path d="M6820 2159 c0 -5 5 -7 10 -4 6 4 21 0 33 -8 12 -8 39 -19 60 -26 36
-12 44 -11 126 15 8 2 12 7 9 9 -3 3 -24 -2 -47 -10 -47 -16 -75 -13 -133 16
-42 22 -58 24 -58 8z"/>
<path d="M3492 1990 c-2 -168 9 -266 43 -380 19 -63 75 -168 102 -191 39 -34
46 -31 13 7 -104 116 -139 241 -149 534 l-7 195 -2 -165z"/>
<path d="M5724 2003 l7 -132 -48 -4 -48 -3 53 -2 54 -2 -7 133 c-4 72 -10 134
-13 137 -2 3 -2 -54 2 -127z"/>
<path d="M6820 2092 c13 -46 25 -63 82 -119 50 -49 91 -73 124 -73 7 0 39 22
69 50 31 29 98 72 156 101 110 55 119 54 119 -7 0 -17 5 -56 11 -88 6 -32 14
-134 18 -226 7 -162 8 -170 39 -233 37 -75 82 -127 109 -127 17 1 17 1 -2 12
-34 19 -64 55 -97 120 -30 58 -33 71 -35 173 -2 61 -8 153 -14 205 -22 193
-27 231 -30 235 -2 2 -55 -22 -118 -53 -80 -39 -129 -70 -163 -104 -26 -26
-55 -48 -64 -48 -52 0 -176 111 -189 170 -4 16 -10 32 -15 35 -5 3 -5 -7 0
-23z"/>
<path d="M8895 2103 c-16 -9 -48 -33 -71 -55 -23 -22 -50 -45 -60 -53 -18 -13
-18 -14 4 -8 13 3 30 17 39 30 16 25 94 83 111 83 5 0 20 -62 33 -137 13 -75
26 -128 28 -118 2 11 -1 42 -7 70 -6 27 -16 82 -23 120 -7 39 -15 73 -18 77
-3 3 -19 -1 -36 -9z"/>
<path d="M766 2023 l4 -81 -62 3 -63 4 65 -9 c35 -5 66 -7 68 -5 2 2 -1 41 -6
87 l-11 83 5 -82z"/>
<path d="M13011 2070 c-1 -14 -4 -36 -6 -50 l-6 -25 11 25 c6 13 9 36 7 50
l-4 25 -2 -25z"/>
<path d="M13809 1993 c-77 -108 -260 -297 -351 -365 -38 -27 -68 -52 -68 -54
0 -9 18 -3 36 14 10 9 39 33 64 52 68 52 239 227 293 300 26 36 54 73 62 82
17 20 37 58 32 58 -3 0 -33 -39 -68 -87z"/>
<path d="M5861 2031 c-1 -34 14 -131 27 -180 5 -19 24 -31 77 -53 200 -81 301
-155 356 -259 18 -33 23 -61 24 -112 0 -60 -3 -71 -24 -88 -50 -41 -73 -29
-204 105 -120 121 -192 180 -209 170 -4 -3 -8 -16 -8 -30 0 -14 -13 -53 -30
-87 -24 -50 -40 -69 -82 -96 -28 -19 -75 -41 -102 -50 -30 -8 -44 -16 -34 -19
22 -4 120 39 164 73 35 27 94 134 94 172 0 12 4 23 9 23 19 0 157 -118 206
-176 82 -97 104 -114 152 -114 61 0 94 73 78 169 -9 55 -77 155 -134 197 -59
43 -179 106 -258 134 -68 25 -63 14 -83 150 -16 105 -18 109 -19 71z"/>
<path d="M14024 1983 c-61 -86 -239 -266 -325 -326 -70 -49 -204 -115 -279
-136 -25 -8 -58 -17 -74 -22 -46 -14 -50 4 -6 31 22 14 40 28 40 33 0 4 -20
-6 -45 -23 -77 -53 -57 -69 52 -40 101 28 223 85 320 152 119 81 276 244 358
371 36 55 5 25 -41 -40z"/>
<path d="M1954 1905 c1 -109 4 -126 30 -182 30 -65 114 -156 171 -186 62 -31
160 -57 239 -62 l81 -4 -95 13 c-224 32 -337 113 -406 291 -4 11 -11 72 -15
135 l-7 115 2 -120z"/>
<path d="M2021 1977 c-1 -45 30 -111 72 -150 109 -102 351 -125 607 -59 54 14
145 55 131 60 -6 2 -22 -3 -35 -11 -58 -38 -248 -77 -377 -77 -216 0 -365 87
-389 227 -7 47 -8 47 -9 10z"/>
<path d="M12848 1960 c47 -43 117 -37 143 12 l12 23 -25 -23 c-14 -12 -41 -25
-60 -28 -29 -5 -40 -1 -61 20 -14 14 -30 26 -34 26 -4 0 7 -14 25 -30z"/>
<path d="M505 1941 c-133 -32 -216 -137 -218 -276 -1 -65 18 -153 30 -141 3 3
0 20 -7 37 -18 42 -15 165 4 210 19 45 80 110 126 135 19 10 64 23 100 30 43
8 53 12 30 12 -19 0 -48 -3 -65 -7z"/>
<path d="M5475 1861 c-75 -19 -159 -81 -190 -142 -9 -16 -17 -50 -20 -76 l-4
-48 12 50 c29 119 103 184 242 211 44 9 51 12 25 12 -19 0 -48 -3 -65 -7z"/>
<path d="M2922 1811 c91 -36 134 -113 108 -192 -15 -46 -49 -72 -114 -90 -21
-6 -35 -13 -32 -16 10 -10 100 28 128 55 50 46 46 152 -9 204 -28 27 -91 58
-115 58 -7 -1 8 -9 34 -19z"/>
<path d="M4156 1821 c-3 -5 14 -6 38 -4 47 6 133 -11 178 -33 25 -13 26 -17
17 -44 -13 -36 -66 -84 -117 -106 -51 -21 -163 -16 -191 10 -12 11 -21 14 -21
8 0 -42 153 -56 229 -22 73 34 139 125 111 154 -28 28 -231 59 -244 37z"/>
<path d="M8985 1785 c3 -22 10 -88 15 -147 9 -113 29 -168 78 -220 25 -27 74
-38 86 -20 3 5 -8 6 -24 4 -22 -3 -35 2 -54 22 -45 50 -65 108 -76 229 -6 62
-15 127 -20 143 -9 26 -9 25 -5 -11z"/>
<path d="M475 1799 c-22 -5 -43 -13 -48 -18 -5 -5 18 -2 50 7 48 12 72 12 148
2 49 -7 96 -15 105 -18 8 -3 12 -2 8 3 -10 10 -143 34 -188 33 -19 0 -53 -4
-75 -9z"/>
<path d="M3786 1764 c-10 -75 -7 -146 9 -189 19 -52 19 -122 0 -160 l-15 -30
20 24 c25 29 26 96 4 172 -12 41 -15 75 -10 142 6 94 3 115 -8 41z"/>
<path d="M4089 1787 c-30 -26 -49 -58 -49 -84 0 -10 9 0 19 23 10 22 31 50 46
62 15 12 24 22 19 22 -5 0 -21 -10 -35 -23z"/>
<path d="M9141 1767 c-1 -16 12 -78 47 -222 6 -22 10 -31 11 -20 0 11 -12 74
-28 140 -16 66 -30 112 -30 102z"/>
<path d="M375 1748 c-24 -22 -55 -95 -34 -83 5 4 9 14 9 24 0 10 14 33 32 50
37 36 32 42 -7 9z"/>
<path d="M766 1756 c21 -15 30 -14 19 3 -3 6 -14 11 -23 11 -13 0 -13 -2 4
-14z"/>
<path d="M766 1707 c-7 -28 -35 -61 -78 -93 -17 -13 -26 -24 -19 -24 20 0 111
97 111 120 0 27 -6 25 -14 -3z"/>
<path d="M5395 1709 c-22 -11 -45 -25 -52 -32 -17 -17 -47 -90 -34 -82 6 3 11
12 11 19 0 23 41 66 83 87 36 19 54 21 151 17 61 -2 100 -1 86 3 -14 4 -65 7
-115 8 -71 0 -99 -4 -130 -20z"/>
<path d="M5700 1696 c38 -13 54 -11 30 4 -8 6 -26 10 -40 9 -22 0 -20 -2 10
-13z"/>
<path d="M5730 1652 c0 -13 -21 -44 -48 -72 -57 -59 -52 -67 7 -10 38 37 61
83 47 97 -3 4 -6 -3 -6 -15z"/>
<path d="M341 1634 c-1 -12 6 -28 16 -35 15 -13 15 -12 6 6 -6 11 -13 27 -16
35 -4 10 -6 8 -6 -6z"/>
<path d="M380 1580 c0 -6 7 -10 15 -10 8 0 15 2 15 4 0 2 -7 6 -15 10 -8 3
-15 1 -15 -4z"/>
<path d="M625 1580 c-16 -7 -17 -9 -3 -9 9 -1 20 4 23 9 7 11 7 11 -20 0z"/>
<path d="M921 1563 c-26 -62 -102 -125 -185 -155 -39 -14 -42 -16 -16 -12 77
14 174 84 205 150 9 20 15 38 12 40 -2 3 -10 -8 -16 -23z"/>
<path d="M4020 1581 c0 -5 5 -13 10 -16 6 -3 10 -2 10 4 0 5 -4 13 -10 16 -5
3 -10 2 -10 -4z"/>
<path d="M5311 1569 c-2 -39 59 -80 116 -78 l38 2 -41 6 c-50 8 -92 34 -104
64 -6 15 -9 17 -9 6z"/>
<path d="M438 1558 c23 -9 134 -9 149 0 6 4 -29 7 -78 7 -49 0 -81 -3 -71 -7z"/>
<path d="M5261 1550 c-3 -84 65 -176 155 -210 41 -15 75 -20 137 -18 l82 2
-90 6 c-102 8 -127 14 -170 44 -59 41 -91 87 -103 152 -6 27 -10 38 -11 24z"/>
<path d="M4076 1511 c41 -39 96 -62 144 -60 14 1 3 5 -24 11 -48 9 -136 60
-136 78 0 6 -6 10 -12 10 -7 0 6 -18 28 -39z"/>
<path d="M5581 1515 c-18 -8 -45 -16 -60 -16 -18 -1 -20 -3 -8 -6 22 -6 107
18 107 29 0 10 2 10 -39 -7z"/>
<path d="M330 1491 c18 -34 84 -81 134 -96 30 -9 84 -14 135 -13 l86 1 -100 6
c-82 5 -110 11 -157 34 -34 17 -65 40 -75 58 -19 32 -40 41 -23 10z"/>
<path d="M2797 1504 c-3 -3 -59 -12 -124 -19 l-118 -14 95 5 c106 6 251 31
189 33 -20 1 -38 -2 -42 -5z"/>
<path d="M9191 1463 c0 -6 -4 -20 -7 -30 -5 -14 -4 -15 5 -7 7 7 11 20 8 30
-3 11 -5 14 -6 7z"/>
<path d="M4288 1453 c7 -3 16 -2 19 1 4 3 -2 6 -13 5 -11 0 -14 -3 -6 -6z"/>
<path d="M3708 1383 c12 -2 32 -2 45 0 12 2 2 4 -23 4 -25 0 -35 -2 -22 -4z"/>
<path d="M16235 1331 c-58 -6 -60 -7 -63 -37 -3 -30 -2 -31 45 -37 26 -3 111
-4 188 -2 77 2 200 4 273 5 l132 0 0 35 c0 32 -3 35 -27 35 -16 0 -131 1 -258
3 -126 2 -257 1 -290 -2z"/>
</g>
</svg>
